Patient4_TMGait_0pt6_01_right_46_EMG.mot
version=1
nRows=23
nColumns=33
inDegrees=no
endheader
time	1LAddLong	2LGlutMax	3LGlutMed	4LIliopsoas	5LSemiMemb	6LBicFemLong	7LRecFem	8LVastMed	9LVastLat	10LGasMed	11LTibAnt	12lTibPost	13LPeroneusLong	14LSol	15LExtDigLong	16LFlexDigLong	17RAddLong	18RGlutMax	19RGlutMed	20RIliopsoas	21RSemiMemb	22RBicFemLong	23RRecFem	24RVastMed	25RVastLat	26RGasMed	27RTibAnt	28RTibPost	29RPeroneusLong	30RSol	31RExtDigLong	32RFlexDigLong
56.663	0.010071	0.01297	0.026398	0.02243	0.025177	-0.038147	0.15121	0.005493	-0.006104	-0.055847	0.1474	0.009003	0.032959	0.037994	0.12878	0.027008	-0.001984	-0.066071	-0.077972	-0.13138	0.014496	-0.15472	0.042419	-0.1004	-0.030518	-0.016937	-0.28625	-0.004425	0.17181	-0.037689	-0.005341	-0.003662
56.664	0.015869	0.080261	0.011292	0.029297	0.028992	-0.031891	0.092163	0.005493	-0.032959	-0.07431	0.1239	0.00351	0.11459	0.12817	0.044403	-0.005951	0.01358	-0.069427	-0.15381	-0.20889	-0.097351	-0.16769	0.044708	-0.12146	-0.025177	-0.010529	-0.081024	-0.003815	0.12222	-0.079346	-0.001984	0.000305
56.665	0.023193	0.09552	-0.020447	0.016937	0.024261	-0.011749	0.039215	0.007477	0.010529	-0.061493	0.094604	0.001526	0.022888	0.29327	-0.010376	-0.04364	-0.004578	-0.018005	0.007782	-0.042114	-0.30579	-0.056763	0.02655	-0.13886	-0.021057	-0.000916	0.18005	-0.005035	0.014343	-0.083618	-0.000153	0.007172
56.666	0.016327	0.098114	0.015717	0.024719	0.019989	0.009155	0.056763	-0.004425	0.063934	-0.02655	0.056152	0.000305	-0.16113	0.29663	-0.009308	0.10681	-0.028992	-0.062866	0.23834	0.062408	-0.42999	0.061035	0.020905	-0.11475	0	-0.000458	0.13458	-0.003357	-0.085297	-0.049744	-0.001373	-0.00473
56.667	0.009003	0.14236	0.053253	0.019684	0.014801	0.006104	0.11978	-0.001678	0.057983	0.014496	0.03418	0.005646	-0.11429	0.0737	-0.084686	-0.078125	-0.063629	-0.057678	0.007935	0.016174	-0.098267	0.050507	-0.03067	-0.018158	0.009766	-0.00061	0.15289	-0.00473	-0.14313	-0.006409	0	-0.017853
56.668	0.001373	0.18494	-0.043488	0.00412	0.016022	0.018311	0.11246	0.006409	0.044403	0.05127	0.013733	0.000763	-0.032501	-0.12604	-0.047913	-0.02533	-0.07019	-0.012054	0.2626	-0.022278	0.47531	0.026855	0.003662	-0.021057	0.012512	0.000916	0.30075	-0.003052	-0.17822	0.017395	0.000458	-0.010529
56.669	0.007172	0.15213	-0.09491	-0.029907	0.011139	0.010986	0.086365	0.012054	0.032043	0.020142	0.015869	0	0.005798	-0.25696	-0.004883	0.27893	-0.057373	0.000153	0.056915	0.1387	0.21133	0.002441	-0.023651	-0.032501	0.006256	-0.009766	0.22385	-0.002136	-0.32288	-0.041809	0.000763	-0.00946
56.67	0.014648	0.15808	-0.025635	-0.017853	0.02243	-0.009766	0.095825	0.002594	0.061798	0.019226	-0.000153	0.00885	-0.036621	-0.13596	0.02655	0.052948	-0.043335	-0.018005	-0.31372	0.11261	0.028992	0.011749	-0.021057	-0.072632	-0.0177	-0.005035	0.48019	0.001373	-0.38666	-0.1416	0.001678	-0.005951
56.671	0.019684	0.15793	0.007477	-0.013123	0.020599	-0.010376	0.13306	-0.002289	0.063629	-0.016937	0.014038	0.007782	-0.042114	0.019989	0.033875	-0.15335	0.00946	-0.00473	-0.36697	0.023041	-0.001221	-0.018921	0.011444	-0.077972	-0.010834	-0.014648	0.61569	-0.003662	-0.067596	-0.12528	0.007629	0.00061
56.672	0.015564	0.13672	0.034485	-0.015564	0.025635	-0.00824	0.15427	0.002747	0.048218	-0.026398	0.000916	0.02182	-0.040894	0.067596	0.031281	-0.059967	0.002441	0.015564	-0.044708	0.012054	-0.043335	-0.053101	-0.012207	-0.08316	0.003662	-0.00473	0.71213	-0.001831	0.34332	-0.1413	0	0.005341
56.673	0.014801	0.086975	-0.003815	-0.001526	0.027618	0.001984	0.17532	-0.001678	0.02655	0.002441	0.006256	0.014954	-0.037231	0.050812	0.019073	0.008698	0.006714	-0.00824	-0.086365	0.003357	-0.11383	-0.029755	-0.019684	-0.13229	0.014954	0.002899	0.063477	-0.004272	0.41565	-0.18982	-0.001221	0.005035
56.674	0.014038	0.053101	-0.016327	0.013428	0.025635	0.026093	0.17944	-0.000763	0.018921	-0.039215	0.014191	-0.000763	0.10819	0.10635	0.005646	0.009003	0.040894	-0.032654	-0.075073	0.063324	0.016785	-0.082092	-0.054016	-0.10834	0.014954	0.006104	-1.0706	-0.004425	0.54413	-0.088806	0.001831	0.001984
56.675	0.01358	0.035095	0.019684	0.018921	0.037231	0.01236	0.20554	0.00351	0.032654	-0.040131	0.014038	0.003662	0.032806	0.15076	0.001526	-0.016174	0.065765	-0.02182	-0.11948	0.1062	0.25787	-0.086212	-0.048065	-0.066071	0.018921	-0.010071	-0.60028	-0.009766	0.34332	0.058441	0.003662	-0.003815
56.676	0.01358	0.025482	0.035706	0.013733	0.036316	-0.003052	0.1973	-0.003662	0.037537	0.021515	0.016785	0.007477	-0.17624	0.14664	0.047607	-0.049133	0.065002	-0.017242	-0.19028	0.11963	0.13733	-0.12222	-0.062714	-0.009613	0.019226	-0.003967	-0.54718	-0.007935	0.34775	0.055389	-0.00061	-0.000153
56.677	0.00946	0.062103	0.052643	0.014648	0.020294	0.008698	0.20645	0.000153	0.001831	0.05188	0.012665	0.010986	-0.043945	0.092163	0.063477	-0.05188	0.061646	0.04776	-0.24628	0.048828	-0.25436	-0.11368	-0.013885	-0.073395	0.005035	0.003815	-0.7605	-0.003357	0.30579	-0.004578	0	0.000305
56.678	0.013428	0.037537	0.052338	-0.003357	0.021667	0.005951	0.18112	0.009613	-0.025787	-0.033264	-0.014191	0.008545	0.27298	0.045013	0.057831	-0.025787	-0.023651	0.068817	-0.24262	0.065155	-0.29221	-0.030823	-0.009766	-0.011444	-0.006256	0.003662	-0.59326	-0.009003	0.12268	-0.057526	-0.000458	-0.009766
56.679	0.001221	0.038452	0.17044	-0.011139	0.024109	0.000305	0.12268	-0.013123	-0.011597	-0.076141	-0.014648	0.005035	-0.03891	0.18646	0.097504	0.10239	-0.087585	0.091095	-0.079498	0.008392	0.067749	0.3067	-0.013275	0.054474	-0.007629	-0.009308	-0.37689	-0.00824	-0.6665	-0.13031	0.000153	-0.001526
56.68	0.00885	-0.011597	0.10864	0.002441	0.017242	0.009918	0.13718	0.007477	0.056305	-0.075073	-0.000458	-0.002899	-0.007782	0.11734	0.020294	0.096588	-0.090027	0.065155	-0.019226	-0.070343	0.083313	0.38361	-0.031281	0.050049	-0.020142	-0.015717	-0.056763	-0.006409	-0.32974	-0.13336	-0.000916	0.002899
56.681	0.008698	-0.002594	-0.068054	0.024109	0.023499	0.007935	0.15686	0.003967	0.030975	-0.17654	0.007477	0.003052	-0.19821	-0.030212	-0.011902	0.009918	-0.061188	0.030212	-0.12329	-0.16235	0.038757	0.3186	0.050812	-0.021667	-0.021973	-0.02121	-0.073242	-0.009308	0.2124	-0.011597	-0.00061	-0.003052
56.682	0.010071	-0.043945	-0.15671	0.027161	0.028687	-0.020905	0.17242	0.001831	0.039978	-0.12024	0.007935	0.007782	0.018463	-0.053253	-0.033112	0.000763	-0.059357	0.003357	-0.30014	-0.19196	-0.077057	0.16678	0.009308	-0.0354	-0.02594	-0.010376	0.24658	-0.008087	0.41519	0.10132	-0.001221	-0.012512
56.683	0.012665	-0.050354	-0.16419	0.014496	0.019379	-0.018158	0.15579	0.006714	0.019836	-0.06073	-0.00885	0.012054	0.23651	0.057068	-0.013428	-0.003815	-0.041199	-0.000763	-0.33402	0.052185	-0.20767	0.039368	0.046387	-0.054779	-0.029602	-0.021057	0.34302	-0.01297	-0.035248	0.15121	-0.001526	-0.014954
56.684	0.010071	-0.054626	-0.026245	0.006256	0.028992	-0.010376	0.15579	0.005798	0.012665	-0.066223	-0.007782	0.019989	0.47028	-0.082245	-0.001831	-0.00061	-0.010071	-0.016785	-0.079651	0.17029	-0.26901	0.00885	0.038605	-0.088348	-0.025024	-0.007019	0.12558	-0.016937	-0.16022	0.1413	0	-0.002136
56.685	0.009613	-0.10208	-0.1207	0.017395	0.029449	-0.013275	0.14893	0.007324	0.026093	-0.036774	0.013123	0.012512	0.19669	-0.005798	-0.040588	-0.001373	0.023499	-0.064087	0.34256	0.068512	0.011902	-0.043335	0.098419	-0.11597	-0.034332	0.016937	0.092621	-0.017395	-0.19089	0.047455	0.000153	-0.009003
